<svg id="Layer_5" enable-background="new 0 0 64 64" height="512" viewBox="0 0 64 64" width="512" xmlns="http://www.w3.org/2000/svg"><g fill="#ff826e"><circle cx="59" cy="17" r="3"/><path d="m17.57 12.08c.83 1.44.34 3.27-1.1 4.1-1.43.83-3.27.34-4.09-1.1-.83-1.43-.34-3.27 1.09-4.1 1.44-.83 3.27-.33 4.1 1.1z"/><path d="m35.53 50.82c1.43.83 1.92 2.66 1.09 4.1-.82 1.43-2.66 1.93-4.09 1.1-1.44-.83-1.93-2.67-1.1-4.1.83-1.44 2.66-1.93 4.1-1.1z"/></g><path d="m25.44 44.31.55-.33.01.02-14.35 16.15c-1.05 1.18-2.55 1.85-4.13 1.85-1.52 0-2.9-.62-3.9-1.62s-1.62-2.38-1.62-3.9c0-1.58.67-3.08 1.85-4.13l16.15-14.35.02.01-.33.55z" fill="#969faa"/><path d="m55 23.93v8.14l-3.48.86c-.28.89-.64 1.74-1.07 2.55l1.86 3.08-5.75 5.75-3.08-1.86c-.81.43-1.66.79-2.55 1.07l-.86 3.48h-8.14l-.86-3.48c-.89-.28-1.74-.64-2.55-1.07l-2.53 1.53-.55.33-5.75-5.75.33-.55 1.53-2.53c-.43-.81-.79-1.66-1.07-2.55l-3.48-.86v-8.14l3.48-.86c.28-.89.64-1.74 1.07-2.55l-1.86-3.08 5.75-5.75 3.08 1.86c.81-.43 1.66-.79 2.55-1.07l.86-3.48h8.14l.86 3.48c.89.28 1.74.64 2.55 1.07l3.08-1.86 5.75 5.75-1.86 3.08c.43.81.79 1.66 1.07 2.55z" fill="#ffc729"/><circle cx="36" cy="28" fill="#fcd770" r="12"/><path d="m12.722 49.329h1.899v2h-1.899z" transform="matrix(.707 -.707 .707 .707 -31.583 24.408)"/><path d="m18.293 43.707h2v2h-2z" transform="matrix(.707 -.707 .707 .707 -25.962 26.737)"/><path d="m15.464 46.535h2v2h-2z" transform="matrix(.707 -.707 .707 .707 -28.79 25.565)"/><path d="m30.234 44.295.911 3.705h9.71l.911-3.705c.558-.199 1.117-.433 1.672-.7l3.271 1.98 6.866-6.867-1.98-3.271c.266-.554.5-1.113.7-1.671l3.705-.911v-9.711l-3.705-.911c-.199-.558-.434-1.117-.7-1.671l1.98-3.271-6.866-6.867-3.271 1.98c-.555-.268-1.114-.501-1.672-.7l-.911-3.704h-9.71l-.911 3.705c-.558.199-1.117.433-1.672.7l-3.271-1.98-6.866 6.867 1.98 3.271c-.266.554-.5 1.113-.7 1.671l-3.705.911v9.711l3.705.911c.199.558.434 1.117.7 1.671l-1.134 1.873-4.444 3.95c-.159-.254-.329-.502-.478-.76-4.146-7.181-4.46-15.793-.914-23.243.165.069.328.142.503.189.345.092.694.138 1.042.138.693 0 1.377-.182 1.994-.537 1.909-1.104 2.566-3.555 1.463-5.465-1.102-1.909-3.552-2.565-5.464-1.464-.925.534-1.587 1.396-1.863 2.429-.277 1.032-.135 2.11.399 3.035.09.155.201.292.309.432-4.028 8.129-3.75 17.605.799 25.485.217.375.46.739.696 1.106l-10.125 8.999c-1.39 1.237-2.188 3.013-2.188 4.874 0 3.596 2.925 6.521 6.521 6.521 1.86 0 3.637-.798 4.874-2.188l14.297-16.084 1.871-1.133c.554.267 1.113.501 1.671.7zm-17.192-31.232c.138-.516.469-.947.932-1.214.954-.554 2.181-.224 2.732.731s.223 2.181-.732 2.732c-.462.267-1.001.338-1.518.2-.516-.139-.947-.47-1.214-.933s-.338-.999-.2-1.516zm-2.142 46.42c-.858.964-2.089 1.517-3.379 1.517-2.493 0-4.521-2.028-4.521-4.521 0-1.29.553-2.522 1.518-3.38l14.982-13.317 4.718 4.718zm14.697-16.431-4.649-4.648 1.744-2.881-.258-.498c-.412-.796-.75-1.604-1.003-2.4l-.17-.534-3.261-.804v-6.574l3.26-.803.17-.534c.253-.797.591-1.604 1.003-2.4l.258-.498-1.744-2.881 4.649-4.648 2.882 1.744.498-.259c.796-.414 1.603-.751 2.399-1.004l.535-.17.802-3.26h6.575l.802 3.26.535.17c.796.253 1.603.59 2.399 1.004l.498.259 2.882-1.744 4.649 4.648-1.744 2.881.258.498c.412.796.75 1.604 1.003 2.4l.17.534 3.261.803v6.574l-3.26.803-.17.534c-.253.797-.591 1.604-1.003 2.4l-.258.498 1.744 2.881-4.649 4.648-2.882-1.744-.498.259c-.796.414-1.603.751-2.399 1.004l-.535.17-.802 3.26h-6.575l-.802-3.26-.535-.17c-.796-.253-1.603-.59-2.399-1.004l-.498-.259z"/><path d="m37 37v-2h3v-4c0-2.206-1.794-4-4-4-1.103 0-2-.897-2-2v-2h2c1.103 0 2 .897 2 2h2c0-1.859-1.28-3.411-3-3.858v-2.142h-2v2h-3v4c0 2.206 1.794 4 4 4 1.103 0 2 .897 2 2v2h-2c-1.103 0-2-.897-2-2h-2c0 1.859 1.28 3.411 3 3.858v2.142z"/><path d="m49 28c0-7.168-5.832-13-13-13s-13 5.832-13 13 5.832 13 13 13 13-5.832 13-13zm-24 0c0-6.065 4.935-11 11-11s11 4.935 11 11-4.935 11-11 11-11-4.935-11-11z"/><path d="m59 13c-.18 0-.352.03-.526.053-5.029-7.554-13.375-12.053-22.474-12.053-.695 0-1.394.026-2.077.079l.153 1.994c.632-.049 1.279-.073 1.924-.073 8.292 0 15.908 4.035 20.586 10.831-.957.732-1.586 1.873-1.586 3.169 0 2.206 1.794 4 4 4s4-1.794 4-4-1.794-4-4-4zm0 6c-1.103 0-2-.897-2-2s.897-2 2-2 2 .897 2 2-.897 2-2 2z"/><path d="m57.65 40.5c-4.146 7.182-11.449 11.76-19.674 12.413-.155-1.195-.829-2.311-1.95-2.959-1.91-1.101-4.361-.446-5.464 1.465-.535.925-.677 2.003-.4 3.035.276 1.032.938 1.895 1.864 2.429.628.362 1.315.535 1.993.535 1.383 0 2.731-.718 3.471-1.999.09-.156.15-.32.217-.483 9.057-.578 17.125-5.556 21.675-13.436.347-.603.674-1.22.97-1.837l-1.803-.865c-.274.571-.576 1.143-.899 1.702zm-21.891 13.919c-.551.954-1.778 1.284-2.732.731-.463-.267-.794-.698-.932-1.214-.138-.517-.067-1.055.2-1.518.37-.642 1.044-1 1.736-1 .339 0 .682.086.996.268.954.552 1.283 1.778.732 2.733z"/></svg>